<svg xmlns="http://www.w3.org/2000/svg" data-name="Layer 2" viewBox="0 0 100 125" x="0px" y="0px">
  <path
    d="M45,52a1,1,0,1,1,1,1A1,1,0,0,1,45,52Zm9,1a1,1,0,1,0-1-1A1,1,0,0,0,54,53ZM42.5,52a3.5,3.5,0,0,1,7-.5h1.08a3.5,3.5,0,1,1,0,1H49.46a3.5,3.5,0,0,1-7-.5Zm9,0A2.5,2.5,0,1,0,54,49.5,2.5,2.5,0,0,0,51.5,52Zm-8,0A2.5,2.5,0,1,0,46,49.5,2.5,2.5,0,0,0,43.5,52ZM70,53a3,3,0,0,1-1.06,2.29A9.6,9.6,0,0,1,70,59.7V84H48.92A18.92,18.92,0,0,1,30,65.08V59.7a9.6,9.6,0,0,1,1.06-4.41,3,3,0,0,1-.6-3.88A12.76,12.76,0,0,1,30,48,13,13,0,0,1,43,35h2.71a9.7,9.7,0,0,1,8.58,0H57A13,13,0,0,1,70,48a12.76,12.76,0,0,1-.46,3.41A3,3,0,0,1,70,53ZM39.43,42.19A28.53,28.53,0,0,0,35.87,50c-.11.34-.19.67-.27,1a20.93,20.93,0,0,0-.5,2.78A13.29,13.29,0,0,0,35.64,55c.16.34.34.67.53,1a16.1,16.1,0,0,0,5.62,5.71,10.94,10.94,0,0,1,16.42,0A16.1,16.1,0,0,0,63.83,56c.19-.33.37-.66.53-1s.38-.81.54-1.23A20.37,20.37,0,0,0,64.42,51c-.07-.33-.16-.66-.26-1-2-7.25-7.61-15-14.16-15C44.93,35,41.2,39.51,39.43,42.19ZM31.58,54.4l.24.22A2,2,0,0,0,33,55h1c0-.09,0-.19,0-.29s0-.37,0-.56,0-.43.07-.65a4.36,4.36,0,0,1,.06-.49c.05-.41.12-.82.21-1.24a1.7,1.7,0,0,0,0-.22c0-.07,0-.14.05-.22s0-.22.08-.33H33a2,2,0,0,0-2,2v0A2,2,0,0,0,31.58,54.4ZM69,53a2,2,0,0,0-2-2H65.43a5,5,0,0,1,.12.53v0c0,.07,0,.15,0,.22.05.24.09.47.13.7s.06.36.08.54,0,.36.07.53.05.42.06.62,0,.37,0,.55,0,.2,0,.29h1a2,2,0,0,0,1.16-.37h0a0,0,0,0,1,0,0l.24-.22A2,2,0,0,0,69,53Z" />
  <text x="0" y="115" fill="#000000" font-size="5px" font-weight="bold"
    font-family="'Helvetica Neue', Helvetica, Arial-Unicode, Arial, Sans-serif"></text><text x="0" y="120"
    fill="#000000" font-size="5px" font-weight="bold"
    font-family="'Helvetica Neue', Helvetica, Arial-Unicode, Arial, Sans-serif"></text>
</svg>