<svg xmlns="http://www.w3.org/2000/svg" xmlns:xlink="http://www.w3.org/1999/xlink" version="1.1" x="0px" y="0px"
	viewBox="0 0 500 625" style="enable-background:new 0 0 500 500;" xml:space="preserve">
	<style type="text/css">
		.st0 {
			fill-rule: evenodd;
			clip-rule: evenodd;
		}
	</style>
	<g>
		<path
			d="M250,454.6c-113.6,0-206-92.4-206-206c0-113.6,92.4-206,206-206s206,92.4,206,206C456,362.2,363.6,454.6,250,454.6z    M250,67.5c-99.8,0-181,81.2-181,181c0,99.8,81.2,181,181,181s181-81.2,181-181C431,148.8,349.8,67.5,250,67.5z" />
		<path
			d="M250,308.5c-6.9,0-12.5-5.6-12.5-12.5v-94.9c0-6.9,5.6-12.5,12.5-12.5s12.5,5.6,12.5,12.5V296   C262.5,302.9,256.9,308.5,250,308.5z" />
		<path
			d="M297.5,261.1h-94.9c-6.9,0-12.5-5.6-12.5-12.5s5.6-12.5,12.5-12.5h94.9c6.9,0,12.5,5.6,12.5,12.5S304.4,261.1,297.5,261.1z   " />
		<path
			d="M250,384.5c-75,0-136-61-136-136c0-75,61-136,136-136s136,61,136,136C386,323.5,325,384.5,250,384.5z M250,137.6   c-61.2,0-111,49.8-111,111s49.8,111,111,111s111-49.8,111-111S311.2,137.6,250,137.6z" />
		<path
			d="M250,137.6c-6.9,0-12.5-5.6-12.5-12.5v-106c0-6.9,5.6-12.5,12.5-12.5s12.5,5.6,12.5,12.5v106   C262.5,132,256.9,137.6,250,137.6z" />
		<path
			d="M250,493.4c-6.9,0-12.5-5.6-12.5-12.5v-106c0-6.9,5.6-12.5,12.5-12.5s12.5,5.6,12.5,12.5v106   C262.5,487.8,256.9,493.4,250,493.4z" />
		<path
			d="M480.9,262.5h-106c-6.9,0-12.5-5.6-12.5-12.5s5.6-12.5,12.5-12.5h106c6.9,0,12.5,5.6,12.5,12.5S487.8,262.5,480.9,262.5z" />
		<path
			d="M125.1,262.5h-106c-6.9,0-12.5-5.6-12.5-12.5s5.6-12.5,12.5-12.5h106c6.9,0,12.5,5.6,12.5,12.5S132,262.5,125.1,262.5z" />
	</g><text x="0" y="515" fill="#000000" font-size="5px" font-weight="bold"
		font-family="'Helvetica Neue', Helvetica, Arial-Unicode, Arial, Sans-serif"></text><text x="0" y="520"
		fill="#000000" font-size="5px" font-weight="bold"
		font-family="'Helvetica Neue', Helvetica, Arial-Unicode, Arial, Sans-serif"></text>
</svg>